 <!DOCTYPE svg PUBLIC "-//W3C//DTD SVG 1.1//EN" "http://www.w3.org/Graphics/SVG/1.1/DTD/svg11.dtd">
<svg xmlns="http://www.w3.org/2000/svg" width="865.76" height="682.89" viewBox="0 0 865.76 682.89">
<defs>
<style xmlns="http://www.w3.org/1999/xhtml">*, ::after, ::before { box-sizing: border-box; }
img, svg { vertical-align: middle; }
</style>
<style xmlns="http://www.w3.org/1999/xhtml">*, body, html { -webkit-font-smoothing: antialiased; }
img, svg { max-width: 100%; }
</style>
</defs>
<rect x="461.1" y="102.74" width="99.72" height="42.74" rx="21.37" fill="#0071f2" data-primary="true"/>
<polygon points="622.97 331.87 700.63 341.35 696.02 219.22 661.8 141.22 634.46 141.22 618.18 157.63 622.97 331.87" fill="#e6e6e6"/>
<path d="M626.88,584.91v15.77a9.7,9.7,0,0,1-3.9,7.79c-4.43,3.3-11.89,8.94-18.5,14.32a15.06,15.06,0,0,1-6.82,3.13c-5.21,1-14.35,4.18-14.35,15h49.93l8.17-5v5h25V584.71Z" fill="#2f2e41" data-secondary="true"/>
<path d="M738.42,587.41v13.22a10.13,10.13,0,0,1-3,7.23l-16.31,16-12.28,7.57a9.43,9.43,0,0,0-4.48,8v3.87l50-7.46,7-6.14,1.4,4.19,24.3-5-10.1-44.16Z" fill="#2f2e41" data-secondary="true"/>
<path d="M272.76,167.4H469.82A33.59,33.59,0,0,1,503.42,201v428.2A18.39,18.39,0,0,1,485,647.59H257.56a18.39,18.39,0,0,1-18.39-18.39V201a33.59,33.59,0,0,1,33.59-33.59Z" fill="#2e3135"/>
<path d="M283.21,167.68H484.52A31.47,31.47,0,0,1,516,199.16V631.6a16.27,16.27,0,0,1-16.27,16.27H268a16.27,16.27,0,0,1-16.27-16.27V199.16a31.47,31.47,0,0,1,31.47-31.47Z" fill="#3f4347"/>
<path d="M513.47,258.19h0a9.78,9.78,0,0,1,9.78,9.78v50.84a9.78,9.78,0,0,1-9.78,9.78h0a0,0,0,0,1,0,0V258.19A0,0,0,0,1,513.47,258.19Z" fill="#3f4347"/>
<path d="M256.76,257.91h0a0,0,0,0,1,0,0v25.14a0,0,0,0,1,0,0h0a7.54,7.54,0,0,1-7.54-7.54V265.45A7.54,7.54,0,0,1,256.76,257.91Z" fill="#3f4347"/>
<path d="M256.76,285.84h0a0,0,0,0,1,0,0V311a0,0,0,0,1,0,0h0a7.54,7.54,0,0,1-7.54-7.54V293.39A7.54,7.54,0,0,1,256.76,285.84Z" fill="#3f4347"/>
<path d="M476.78,175.23h-34a13.55,13.55,0,0,1-13.51,12.57H345.73a13.55,13.55,0,0,1-13.51-12.57H290.66a28.87,28.87,0,0,0-28.87,28.87V613.25A26.79,26.79,0,0,0,288.59,640H481.7a24,24,0,0,0,23.95-23.95v-412A28.86,28.86,0,0,0,476.78,175.23Z" fill="#fff"/>
<path d="M402.86,217.69H287.21a5,5,0,1,1,0-10.06H402.86a5,5,0,0,1,0,10.06Z" fill="#ccc"/>
<rect x="284.7" y="233.05" width="206.15" height="72.91" fill="#ccc"/>
<rect x="284.42" y="321.04" width="206.15" height="35.2" fill="#ccc"/>
<rect x="284.7" y="371.32" width="206.15" height="35.2" fill="#ccc"/>
<rect x="284.14" y="456.8" width="206.15" height="35.2" fill="#ccc"/>
<rect x="284.42" y="507.08" width="206.15" height="35.2" fill="#ccc"/>
<rect x="312.21" y="280.68" width="251.4" height="334.37" rx="46.92" fill="#e6e6e6"/>
<path d="M134.44,172.33l-3.22,2.9s22.2,10,52.35,10.31a55.79,55.79,0,0,0,33.19-10.26,36.85,36.85,0,0,0,9.63-9.7L214.3,140.31l-29.48-4.61-22.47,7.12Z" fill="#f9b499"/>
<path d="M147.86,199.56l-3.11,29-10.07-6.1s9.86-21.43,5.91-45.24c2.66,2.23,6.18,6.61,7.22,14.59A33.31,33.31,0,0,1,147.86,199.56Z" opacity="0.2"/>
<path d="M288.89,242l-25.43-2.85-4.46-.5,1.39-33.8C249.5,221,220.3,273.3,220.3,273.3c6.27-15.07,10.76-37.18,10.76-37.18.45-26.72-6.78-54.71-9.63-64.66h0c-.69-2.43-1.13-3.78-1.13-3.78l1.41-.14a13,13,0,0,0,7.16-4A13.55,13.55,0,0,1,244.33,160l40.37-5.36C318.78,152.2,288.89,242,288.89,242Z" fill="#0071f2" data-primary="true"/>
<path d="M264.65,191.56l-1.19,47.58-4.46-.5,1.39-33.8C249.5,221,220.3,273.3,220.3,273.3c6.27-15.07,10.76-37.18,10.76-37.18.45-26.72-6.78-54.71-9.63-64.66.22.55,14.12,35.4,16.62,44C238.05,215.45,258,200.63,264.65,191.56Z" opacity="0.2"/>
<path d="M237.21,438.11s-2.18,9.45-15,33.41c-9.61,18-25.22,44.3-50.41,81L169.33,578s-18.48,2-33.45,3.62l-10.13,1.13L113.27,428l-5.58-72.49s-7.19-52.94,21.92-72.49a56.89,56.89,0,0,0,2.88-5.9c4.6-10.56,10.16-34.18,14.82-76.36l20.16,2.12,13.85,9.75,27.9,1.13a6,6,0,0,0,6.23-6.38A256,256,0,0,0,210,170.64s6.28-3.51,10.34-3c0,0,12.44,42.18,10.76,68.44,0,0-3.64,19.88-10.76,37.18,0,0-4,4.62-4.93,17a62.67,62.67,0,0,0,3.9,26.74c3.93,10.51,11.13,32.44,17.94,67.45C237.21,384.45,247.54,415,237.21,438.11Z" fill="#0071f2" data-primary="true"/>
<path d="M237.21,438.11s-2.18,9.45-15,33.41c-9.61,18-25.22,44.3-50.41,81L169.33,578s-18.48,2-33.45,3.62l-10.13,1.13L113.27,428l-5.58-72.49s-7.19-52.94,21.92-72.49a56.89,56.89,0,0,0,2.88-5.9c4.6-10.56,8.77-34.74,14.82-76.36l20.16,2.12,13.85,9.75,27.9,1.13a6,6,0,0,0,6.23-6.38A256,256,0,0,0,210,170.64s6.28-3.51,10.34-3c0,0,12.44,42.18,10.76,68.44,0,0-3.64,19.88-10.76,37.18,0,0-4,4.62-4.93,17a62.67,62.67,0,0,0,3.9,26.74c3.93,10.51,11.13,32.44,17.94,67.45C237.21,384.45,247.54,415,237.21,438.11Z" fill="#fff" opacity="0.3"/>
<path d="M264.65,239.27v4.57s-17.94,19.3-12.92,24a14,14,0,0,0,8.93-5.75s1.13,12.55-3.9,17.48c0,0-6.7,14.42,9.22,9.68,0,0,32.12-11.18,15.08-44.42l.22-3.65Z" fill="#f9b499"/>
<path d="M207.6,269.08,201,277l-17.13,1.29a5.94,5.94,0,0,0-5.29,4.34l-1.29,4.65c-4.43,2.38-24.76,4.23-33.9,4.95a9.78,9.78,0,0,0-7.69,4.86c-13.6,23.56-8.31,79.28-8.31,79.28l8.52,205.3-10.13,1.13L113.27,428l-5.58-72.49s-7.19-52.94,21.92-72.49a56.89,56.89,0,0,0,2.88-5.9l22.59-.25,42.46-11.45Z" fill="#fff" opacity="0.3"/>
<path d="M193.07,354.84S183,449,182.74,453.17l8.66-24,16.2,4.57-10.08-9.59,14-11.46-19.83,5.87Z" fill="#fff" opacity="0.3"/>
<path d="M222.26,471.52c-9.61,18-25.22,44.3-50.41,81L178,497.86S201.73,489,222.26,471.52Z" fill="#fff" opacity="0.3"/>
<path d="M169.33,578s6.79,13.59,10,25.06a12.19,12.19,0,0,0,4.05,6.2c6,4.87,18.59,15.54,18.37,19.58v8.6h-20L152,617.62l11.13-38.93Z" fill="#2f2e41" data-secondary="true"/>
<path d="M169.33,578s6.79,13.59,10,25.06a12.19,12.19,0,0,0,4.05,6.2c6,4.87,18.59,15.54,18.37,19.58v8.6h-20L152,617.62l11.13-38.93Z" opacity="0.2"/>
<path d="M766.84,350.79a4.75,4.75,0,0,1-2.3,4.91c-2,1.15-4,2.24-6,3.25A140.11,140.11,0,0,1,711.71,373h0a117.61,117.61,0,0,1-13.75.87,3.44,3.44,0,0,1-3.39-2.85L688,333.41l-13.37-76.9-13.41-77.37c-2.51-17.88-14.52-31.29-14.52-31.29l25.64-26.08,42.22,16.91a86.22,86.22,0,0,1,19.77,11.13h0a84.76,84.76,0,0,1,28,36.66c4.63,11.76,5.06,20.44,5.06,20.44,5.87,35.87-15.64,56.59-15.64,56.59Z" fill="#2f2e41" data-secondary="true"/>
<path d="M766.84,350.79a4.75,4.75,0,0,1-2.3,4.91A139,139,0,0,1,711.71,373h0c28.4-33.76,26.92-99.48,26.92-99.48-6.15,7.27-45,15.09-45,15.09-4.47,0-6.43-11.74-6.43-11.74,45-7.54,59.5-33.8,59.5-33.8,34.92-51.29-11.63-92.65-12.36-93.29a84.76,84.76,0,0,1,28,36.66c4.63,11.76,5.06,20.44,5.06,20.44,5.87,35.87-15.64,56.59-15.64,56.59Z" opacity="0.2"/>
<path d="M717.39,152.6a67.93,67.93,0,0,0-6,36.33,72.12,72.12,0,0,0,6,21.5c-.56-1.12-1.15-2.23-1.66-3.37a61.85,61.85,0,0,1-2.7-7c-4.93-15.43-3.53-33.24,4.36-47.45Z" opacity="0.2"/>
<path d="M547,265.17v4.93s43,19.65,68.44,19.1c0,0-3.91,50-2.23,78.49,0,0,5.3,2.79,9.77,2.79,0,0,1.12-34.08,3.91-46.65a262.75,262.75,0,0,0,2.24-46.65l.23-10.39V152.6l-5.26-6.7-17.88,13.4s-8.1,5.31-10.33,23.75Z" fill="#2f2e41" data-secondary="true"/>
<path d="M583.31,266.85s31,28.49,56.42,5.86l45.88,1.44s-2.3-7.26-4.67-12.73Z" fill="#f9b499"/>
<path d="M778.29,584.46l-12.37.91L733,587.81,688.9,427.75l-19,156.43-31,.53-12,.2L623,370.48s.84-39.38,3.91-46.65c0,0,20,12.65,61.14,9.58l6.54,37.64A3.44,3.44,0,0,0,698,373.9a114.41,114.41,0,0,0,11.43-.62c.75-.07,1.52-.15,2.32-.25h0A140.11,140.11,0,0,0,758.56,359l4.92,60.7Z" fill="#0071f2" data-primary="true"/>
<path d="M688.9,427.75l-19,156.43-31,.53C672.49,545,678,385.85,678,385.85Z" opacity="0.2"/>
<path d="M778.29,584.46l-12.37.91-.7-.66C761.68,463,718.8,388.28,709.38,373.28c.75-.07,1.52-.15,2.32-.25h0A140.11,140.11,0,0,0,758.56,359l4.92,60.7Z" opacity="0.2"/>
<polygon points="536.23 258.19 513.47 183.47 646.72 183.47 665.47 258.19 536.23 258.19" fill="#0071f2" data-primary="true"/>
<polygon points="646.72 183.47 650.53 183.47 668.51 257.07 665.47 258.19 646.72 183.47" fill="#0071f2" data-primary="true"/>
<polygon points="646.72 183.47 650.53 183.47 668.51 257.07 665.47 258.19 646.72 183.47" opacity="0.1"/>
<rect x="536.23" y="258.19" width="129.24" height="8.64" fill="#0071f2" data-primary="true"/>
<rect x="536.23" y="258.19" width="129.24" height="8.64" opacity="0.2"/>
<path d="M678.28,254q-4.53,1.26-9.36,2.93-1.75.61-3.45,1.26v8.64l15.93-4.32Z" fill="#0071f2" data-primary="true"/>
<path d="M678.28,254q-4.53,1.26-9.36,2.93-1.75.61-3.45,1.26v8.64l15.93-4.32Z" opacity="0.3"/>
<polygon points="678.28 254 667.75 254 668.51 257.07 678.28 254" fill="#0071f2" data-primary="true"/>
<polygon points="513.47 183.47 521.81 210.84 572.24 258.19 597.3 258.19 523.25 183.47 513.47 183.47" fill="#fff" opacity="0.2"/>
<polygon points="533.45 183.47 605.03 258.19 624.43 258.19 555.39 183.47 533.45 183.47" fill="#fff" opacity="0.2"/>
<polygon points="602.34 183.47 661.99 244.33 660.09 236.74 610.24 183.47 602.34 183.47" fill="#fff" opacity="0.2"/>
<path d="M527.09,228.18s-32.33-15.8-29.54-37.31c0,0,1.68-9.77,15.92-7.4Z" fill="#f9b499"/>
<path d="M521.14,183.47s-1.71-7.69,1.09-8.3a1.62,1.62,0,0,1,1.42.43l8.27,7.87Z" fill="#f9b499"/>
<path d="M440.85,31.73v93.69a11,11,0,0,1-11,11h-9.44c-2.79,10.46,3.1,21.23,3.1,21.23C401,151,390.93,141.84,386.68,136.4H275.56a11,11,0,0,1-11-11V31.73a11,11,0,0,1,11-11H429.87A11,11,0,0,1,440.85,31.73Z" fill="#0071f2" data-primary="true"/>
<path d="M392.45,89.57l4.12-.16-.26-6.83-4.21.16A17.12,17.12,0,0,0,388.67,76l3-3.41-5.13-4.51-3.19,3.62a17.22,17.22,0,0,0-5.65-1.79l-.19-5.13-6.83.25.2,5.33a17.2,17.2,0,0,0-5.83,2.84l-3.23-3-4.68,5,3.36,3.16A17.13,17.13,0,0,0,358.41,84l-4.22.16.26,6.83,4.13-.16a17.21,17.21,0,0,0,2.63,6l-3.5,4,5.12,4.51,3.32-3.76a17.16,17.16,0,0,0,6,2.39l.18,4.68,6.83-.26-.17-4.49a17.3,17.3,0,0,0,6-2.53l3,2.84,4.68-5-2.89-2.72A17.24,17.24,0,0,0,392.45,89.57Zm-16.61,9.3a12.21,12.21,0,1,1,12-12.21A12.09,12.09,0,0,1,375.84,98.87Z" fill="#fff"/>
<path d="M485.22,130.65V117.57a.61.61,0,0,1,.62-.62h.65a.61.61,0,0,1,.62.62V123H495v-5.45a.61.61,0,0,1,.62-.62h.64a.61.61,0,0,1,.45.18.6.6,0,0,1,.18.44v13.08a.6.6,0,0,1-.18.44.61.61,0,0,1-.45.18h-.64a.61.61,0,0,1-.62-.62v-6h-7.89v6a.61.61,0,0,1-.62.62h-.65a.61.61,0,0,1-.62-.62Z" fill="#2f2e41" data-secondary="true"/>
<path d="M503,130.65V118.6h-3.68a.61.61,0,0,1-.44-.19.59.59,0,0,1-.18-.44v-.4a.61.61,0,0,1,.62-.62h9.26a.61.61,0,0,1,.62.62v.4a.59.59,0,0,1-.18.44.61.61,0,0,1-.44.19h-3.69v12.05a.61.61,0,0,1-.62.62h-.64a.61.61,0,0,1-.45-.18A.6.6,0,0,1,503,130.65Z" fill="#2f2e41" data-secondary="true"/>
<path d="M511,130.65V117.57a.61.61,0,0,1,.62-.62h1.25a.89.89,0,0,1,.52.16.77.77,0,0,1,.33.42l4.16,11,4.16-11a.73.73,0,0,1,.33-.42.89.89,0,0,1,.52-.16h1.25a.61.61,0,0,1,.62.62v13.08a.61.61,0,0,1-.62.62h-.65a.61.61,0,0,1-.62-.62V119.74h0l-4,11a.84.84,0,0,1-.33.42.89.89,0,0,1-.52.16h-.28a.89.89,0,0,1-.52-.16.79.79,0,0,1-.33-.42l-4-11h0v10.91a.61.61,0,0,1-.62.62h-.65a.61.61,0,0,1-.62-.62Z" fill="#2f2e41" data-secondary="true"/>
<path d="M527.67,130.65V117.57a.61.61,0,0,1,.62-.62h.64a.61.61,0,0,1,.45.18.6.6,0,0,1,.18.44v12.05h6.52a.61.61,0,0,1,.62.62v.41a.61.61,0,0,1-.62.62h-7.79a.61.61,0,0,1-.62-.62Z" fill="#2f2e41" data-secondary="true"/>
<path d="M218.75,149.15l3.61,8s-30,18.46-39-11.42Z" fill="#f7a48b"/>
<path d="M206.62,155v17.6s7.4-5.17,15.09-5c0,0,3.47-.09,7.66-4.56a12.68,12.68,0,0,1,11.17-3.93,21.42,21.42,0,0,1,3.79.95s7.4-17.74-7.54-37.71l-15.08-20.11H211.65Z" fill="#2f2e41" data-secondary="true"/>
<path d="M206.62,155v17.6s7.4-5.17,15.09-5c0,0,3.47-.09,7.66-4.56a12.68,12.68,0,0,1,11.17-3.93,21.42,21.42,0,0,1,3.79.95s7.4-17.74-7.54-37.71l-15.08-20.11H211.65Z" opacity="0.2"/>
<path d="M178.81,253.62l20.59,4.29s21.61-10.34,26.64-7c0,0,.27,3.07-6.71,8.38,0,0,8.38,2.23,15.92,1.11,0,0,19.56-3.35,8.1,11.74a29.19,29.19,0,0,1-24.94,10.93,33.86,33.86,0,0,1-18.5-6.88l-3.86-2.91-20,.78Z" fill="#f9b499"/>
<path d="M178.81,250.49l-1.55,13.39-2.34,20.29s-85.48,6.42-84.36-22.63a84.33,84.33,0,0,1,12.52-35.19l2.8-5.78h0L112,207.8q1.5-3.12,2.72-6.35c3.09-8.2,12.74-31.06,22.68-26.22a12.15,12.15,0,0,1,3.15,2h0c2.66,2.23,6.18,6.61,7.22,14.59a33.31,33.31,0,0,1,.05,7.73l-3.11,29Z" fill="#0071f2" data-primary="true"/>
<path d="M177.26,263.88l-2.34,20.29s-85.48,6.42-84.36-22.63a84.33,84.33,0,0,1,12.52-35.19l2.8-5.78c-.29.72-18.06,46,16.55,48.93C122.43,269.5,149.93,271.25,177.26,263.88Z" opacity="0.2"/>
<ellipse cx="199.37" cy="120.23" rx="26.19" ry="38.68" transform="translate(-25.39 59.5) rotate(-15.97)" fill="#f9b499"/>
<path d="M176.45,129.83c14.67-11.18,15.93-23.56,15.56-29.35A6.35,6.35,0,0,1,196.4,94c2-.59,4-.17,5.19,3.19a32.5,32.5,0,0,1,2.52,12.57s25-2.65,20.11-17.6c0,0-10.2-25.28-30.17-12.57,0,0-10.19-10.19-22.63,5,0,0-23.5,4.55-20.55,38.81a63.32,63.32,0,0,1-.1,12.69c-.75,6.72-2.55,15.8-6.86,21.55l-9.76,14.31a.26.26,0,0,0,.29.39,47.82,47.82,0,0,1,14.36-2.27s-13.68,17.94-4.28,28.5a11.37,11.37,0,0,0,2.79,2.23A38.19,38.19,0,0,1,160,212.87a15.21,15.21,0,0,1,1.76,4.15c1,3.78,4.18,12.19,12.19,8.35,0,0,10.67-4.44,6.35-19a24.9,24.9,0,0,0-2-4.82c-1.44-2.64-4.35-9.73-1.47-20.35a31,31,0,0,1,3.4-7.84c1.87-3.12,4.88-10.66,1.3-23.44L179,139.89Z" fill="#2f2e41" data-secondary="true"/>
<ellipse cx="170.87" cy="135.7" rx="8.8" ry="11.31" transform="translate(-44.96 103.61) rotate(-30)" fill="#f9b499"/>
<path d="M164.58,656.52c-15.17.4-20-6-21.37-14.29C141.68,633,144.47,621.6,142,615c-.28-.75-.57-1.53-.86-2.34-4.49-12.49-9.23-30.61-9.23-30.61l7.55-.82,23.73-2.58,1.32,11.07,16.3,44.7a26,26,0,0,1,1.81,7.77C183.41,657.16,164.58,656.52,164.58,656.52Z" fill="#2f2e41" data-secondary="true"/>
<path d="M141.11,612.7c-4.49-12.49-9.23-30.61-9.23-30.61l7.54-1v.16Z" opacity="0.2"/>
<path d="M164.58,656.52c-15.17.4-20-6-21.37-14.29h0s23.86,19.23,39.38,0h0C183.41,657.16,164.58,656.52,164.58,656.52Z" opacity="0.2"/>
<rect x="342.24" y="316.29" width="17.6" height="6.42" rx="3.21" fill="#0071f2" data-primary="true"/>
<rect x="364.87" y="315.73" width="87.99" height="6.42" rx="3.21" fill="#0071f2" data-primary="true"/>
<rect x="364.87" y="328.3" width="30.17" height="6.42" rx="3.21" fill="#2f2e41" data-secondary="true"/>
<rect x="364.87" y="339.76" width="110.62" height="6.42" rx="3.21" fill="#2f2e41" data-secondary="true"/>
<rect x="364.87" y="352.33" width="35.2" height="6.42" rx="3.21" fill="#ccc"/>
<rect x="402.86" y="352.33" width="19.83" height="6.42" rx="3.21" fill="#0071f2" data-primary="true"/>
<rect x="426.32" y="352.33" width="29.05" height="6.42" rx="3.21" fill="#0071f2" data-primary="true"/>
<rect x="340.56" y="376.07" width="19.27" height="6.42" rx="3.21" fill="#0071f2" data-primary="true"/>
<rect x="364.03" y="376.07" width="38.55" height="6.42" rx="3.21" fill="#0071f2" data-primary="true"/>
<rect x="364.03" y="386.41" width="88.83" height="6.42" rx="3.21" fill="#ccc"/>
<rect x="405.37" y="376.07" width="17.32" height="6.42" rx="3.21" fill="#2f2e41" data-secondary="true"/>
<rect x="340.56" y="398.7" width="19.27" height="6.42" rx="3.21" fill="#0071f2" data-primary="true"/>
<rect x="340.56" y="410.15" width="19.27" height="6.42" rx="3.21" fill="#ccc"/>
<rect x="340.56" y="421.6" width="19.27" height="6.42" rx="3.21" fill="#0071f2" data-primary="true"/>
<rect x="363.47" y="421.6" width="21.51" height="6.42" rx="3.21" fill="#2f2e41" data-secondary="true"/>
<rect x="340.56" y="363.78" width="19.27" height="6.42" rx="3.21" fill="#ccc"/>
<rect x="364.87" y="363.78" width="108.94" height="6.42" rx="3.21" fill="#ccc"/>
<rect x="364.03" y="410.15" width="39.11" height="6.42" rx="3.21" fill="#ccc"/>
<rect x="405.09" y="410.15" width="17.6" height="6.42" rx="3.21" fill="#ccc"/>
<rect x="425.48" y="410.15" width="37.43" height="6.42" rx="3.21" fill="#0071f2" data-primary="true"/>
<rect x="364.03" y="398.7" width="31.01" height="6.42" rx="3.21" fill="#0071f2" data-primary="true"/>
<rect x="398.11" y="398.7" width="42.18" height="6.42" rx="3.21" fill="#2f2e41" data-secondary="true"/>
<rect x="425.48" y="376.07" width="39.95" height="6.42" rx="3.21" fill="#2f2e41" data-secondary="true"/>
<rect x="397.55" y="328.58" width="43.02" height="6.42" rx="3.21" fill="#ccc"/>
<rect x="332.46" y="454" width="215.93" height="135.76" rx="3.55" fill="#0071f2" data-primary="true"/>
<path d="M548.39,457.56v9.29H332.46v-9.29A3.55,3.55,0,0,1,336,454H544.84A3.55,3.55,0,0,1,548.39,457.56Z" opacity="0.2"/>
<circle cx="522.27" cy="460.57" r="3.77" fill="#fff"/>
<circle cx="530.93" cy="460.57" r="3.77" fill="#fff"/>
<circle cx="539.59" cy="460.57" r="3.77" fill="#fff"/>
<path d="M350.06,482.36a.56.56,0,0,1-.56-.56V471.74a.56.56,0,0,1,1.12,0V481.8A.56.56,0,0,1,350.06,482.36Z" fill="#fff"/>
<path d="M392.66,477.05H355a.56.56,0,1,1,0-1.12h37.71a.56.56,0,1,1,0,1.12Z" fill="#fff"/>
<path d="M460.54,483.54H355a.56.56,0,1,1,0-1.11H460.54a.56.56,0,1,1,0,1.11Z" fill="#fff"/>
<path d="M488.19,490H355a.56.56,0,1,1,0-1.12H488.19a.56.56,0,1,1,0,1.12Z" fill="#fff"/>
<path d="M528.42,489.9h-35.2a.56.56,0,0,1,0-1.12h35.2a.56.56,0,0,1,0,1.12Z" fill="#fff"/>
<path d="M470.6,560.43H355a.56.56,0,1,1,0-1.11H470.6a.56.56,0,0,1,0,1.11Z" fill="#fff"/>
<path d="M468.08,567.83H355a.56.56,0,1,1,0-1.11H468.08a.56.56,0,1,1,0,1.11Z" fill="#fff"/>
<path d="M488.19,553H355a.56.56,0,1,1,0-1.12H488.19a.56.56,0,0,1,0,1.12Z" fill="#fff"/>
<path d="M376.6,540.76V507.89a1.55,1.55,0,0,1,.45-1.12,1.51,1.51,0,0,1,1.11-.45h1.62a1.55,1.55,0,0,1,1.57,1.57v13.7h19.83v-13.7a1.54,1.54,0,0,1,1.57-1.57h1.61a1.54,1.54,0,0,1,1.57,1.57v32.87a1.54,1.54,0,0,1-1.57,1.57h-1.61a1.54,1.54,0,0,1-1.57-1.57v-15H381.35v15a1.55,1.55,0,0,1-1.57,1.57h-1.62a1.51,1.51,0,0,1-1.11-.45A1.55,1.55,0,0,1,376.6,540.76Z" fill="#fff"/>
<path d="M421.21,540.76V510.47H412a1.57,1.57,0,0,1-1.57-1.57v-1a1.55,1.55,0,0,1,1.57-1.57h23.27a1.52,1.52,0,0,1,1.11.45,1.55,1.55,0,0,1,.45,1.12v1a1.55,1.55,0,0,1-1.56,1.57H426v30.29a1.54,1.54,0,0,1-1.57,1.57h-1.62a1.54,1.54,0,0,1-1.56-1.57Z" fill="#fff"/>
<path d="M441.39,540.76V507.89a1.54,1.54,0,0,1,1.57-1.57h3.13a2.35,2.35,0,0,1,1.32.4,2,2,0,0,1,.81,1.07l10.47,27.76,10.47-27.76a1.9,1.9,0,0,1,.81-1.07,2.3,2.3,0,0,1,1.31-.4h3.14a1.52,1.52,0,0,1,1.11.45,1.55,1.55,0,0,1,.45,1.12v32.87a1.55,1.55,0,0,1-.45,1.12,1.52,1.52,0,0,1-1.11.45H472.8a1.55,1.55,0,0,1-1.57-1.57V513.35h-.1l-10,27.52a1.94,1.94,0,0,1-.8,1.06,2.35,2.35,0,0,1-1.32.4h-.71a2.3,2.3,0,0,1-1.31-.4,1.91,1.91,0,0,1-.81-1.06l-10-27.52h-.1v27.41a1.54,1.54,0,0,1-1.57,1.57H443a1.54,1.54,0,0,1-1.57-1.57Z" fill="#fff"/>
<path d="M483.32,540.76V507.89a1.54,1.54,0,0,1,1.57-1.57h1.61a1.54,1.54,0,0,1,1.57,1.57v30.3h16.39a1.55,1.55,0,0,1,1.57,1.56v1a1.55,1.55,0,0,1-1.57,1.57H484.89a1.54,1.54,0,0,1-1.57-1.57Z" fill="#fff"/>
<ellipse cx="637.59" cy="80.77" rx="46.05" ry="29.85" transform="translate(357.36 659.14) rotate(-71.37)" fill="#f9b499"/>
<path d="M610.34,68.37s-9.43-10.47,1.18-15.77c0,0-7.54-14,6.15-15.93,0,0-3.36-12.29,10.05-15.08,0,0,9.78-4.19,19.28,7.54,0,0,7,8.94,14.24,8.1,0,0,21.23,1.68,17,21.79,0,0,10.9.84,5.87,19,0,0,2.79,12-7,14.52l-11.3-2.24s4.87-20.1-1.55-22.62c0,0-38-1.56-47.64-11.81C616.68,55.87,612.24,62.64,610.34,68.37Z" fill="#2f2e41" data-secondary="true"/>
<ellipse cx="669.34" cy="93.52" rx="11.03" ry="7.26" transform="translate(398.04 712.52) rotate(-74.29)" fill="#f9b499"/>
<path d="M646.28,145.78l.44,2.07s-8.38,4.75-10.62-5l-.57-6.41-1-11.59s16.3-3,27.66-25.56a7.09,7.09,0,0,0-.23.84h0a18.86,18.86,0,0,0,1.55,12L646.69,143A4.13,4.13,0,0,0,646.28,145.78Z" fill="#f9b499"/>
<path d="M630.8,37.79a28.48,28.48,0,0,0,12,11.94,23.32,23.32,0,0,0,11,2.34c5.69-.48,12.21,1,15.45,6.14a14.6,14.6,0,0,0-10.42-5.57,25,25,0,0,0-3.57-.14,26.23,26.23,0,0,1-7.24-.38c-7.62-1.6-14.08-7.36-17.31-14.33Z" opacity="0.2"/>
<path d="M636.1,34a4,4,0,0,0,.38,2.09,7.27,7.27,0,0,0,1.14,1.81c.23.32.71.73,1,1,4.35,3.8,10,5.57,15.51,7.19,1.85.56,3.75.83,5.61,1.4,5.53,1.65,10.74,5.32,13.1,10.72C670.17,53,665.06,49.58,659.57,48c-1.84-.54-3.77-.8-5.61-1.34-1-.31-3.22-1-4.15-1.31a50.33,50.33,0,0,1-5.37-2.19c-2.78-1.41-5.65-3.09-7.41-5.73A5,5,0,0,1,636.1,34Z" opacity="0.2"/>
<path d="M677.44,63.49c3.84,3,3.92,7.78.88,11.4a15.85,15.85,0,0,1-3.11,2.85A25.36,25.36,0,0,0,678,74.62c2.74-3.67,2.66-7.74-.53-11.13Z" opacity="0.2"/>
<path d="M662.16,99.24c-.07.29-.15.58-.23.86h0c-5.73,19.86-26.4,36.3-26.4,36.3l-1-11.59s16.3-3,27.66-25.56Z" fill="#f7a48b"/>
<path d="M672.78,123.31l-8.19,36.27s-1.39,3.08-5.58-.83l-12.29-10.9-.44-2.07a4.13,4.13,0,0,1,.41-2.78l16.79-30.9,8.88,9.67A1.71,1.71,0,0,1,672.78,123.31Z" fill="#0071f2" data-primary="true"/>
<path d="M636.1,142.82l-10.05,14.81s-10.32-12-3.48-21.22l6.78-11a41.2,41.2,0,0,0,5.15-.62Z" fill="#0071f2" data-primary="true"/>
<path d="M350.24,58.6a41.85,41.85,0,0,1,1.36,10.58c0,22.35-17.64,40.48-39.39,40.48a38.24,38.24,0,0,1-8.55-1l8.61-38.9Z" fill="#b3b3b3"/>
<path d="M335.75,36.72a38.51,38.51,0,0,0-23.54-8c-17.13,0-31.71,11.24-37.13,26.94L312.27,69.8Z" fill="#2f2e41" data-secondary="true"/>
<path d="M303.7,108.71c-17.66-4-30.88-20.18-30.88-39.53a41.39,41.39,0,0,1,2.26-13.53L312.27,69.8Z" fill="#0071f2" data-primary="true"/>
<path d="M303.7,108.71c-17.66-4-30.88-20.18-30.88-39.53a41.39,41.39,0,0,1,2.26-13.53L312.27,69.8Z" fill="#fff" opacity="0.3"/>
<path d="M350.23,58.57a40.55,40.55,0,0,0-14.48-21.85L312.27,69.8Z" fill="#ccc"/>
</svg>